# xmcd CD database file
#
# Track frame offsets:
#	150
#	38670
#	74231
#	99620
#	127559
#	160783
#	198203
#	219094
#	239469
#
# Disc length: 3755 seconds
#
# Revision: 1
# Processed by: cddbd v1.5.1PL0 Copyright (c) Steve Scherf et al.
# Submitted via: CDex 1.51
#
DISCID=720ea909
DTITLE=Elonia - Mystic Velvet
DYEAR=1999
DGENRE=New Age
TTITLE0=Unicoms Green Vevlet
TTITLE1=May Morning Dew Froggy Dew
TTITLE2=Shadowtrees
TTITLE3=Carte Postale
TTITLE4=Micho's Dream
TTITLE5=Inishtearaght
TTITLE6=Galadriel's Garden
TTITLE7=Cliff - Watching The Wales
TTITLE8=Spinning Wheels In September
EXTD=YEAR: 1999
EXTT0=
EXTT1=
EXTT2=
EXTT3=
EXTT4=
EXTT5=
EXTT6=
EXTT7=
EXTT8=
PLAYORDER=
